<?xml version="1.0" standalone="no"?>
<!DOCTYPE svg PUBLIC "-//W3C//DTD SVG 20010904//EN"
 "http://www.w3.org/TR/2001/REC-SVG-20010904/DTD/svg10.dtd">
<svg version="1.0" xmlns="http://www.w3.org/2000/svg"
 width="512.000000pt" height="512.000000pt" viewBox="0 0 512.000000 512.000000"
 preserveAspectRatio="xMidYMid meet">

<g transform="translate(0.000000,512.000000) scale(0.100000,-0.100000)"
fill="#000000" stroke="none">
<path d="M2525 5113 c-49 -13 -1253 -597 -1277 -620 -32 -31 -40 -68 -23 -109
20 -49 60 -74 119 -74 46 0 105 26 634 280 l583 279 583 -279 c511 -246 589
-280 630 -280 59 0 100 23 122 68 19 40 12 82 -21 114 -30 30 -1248 615 -1295
621 -19 3 -44 3 -55 0z"/>
<path d="M2528 4531 c-14 -3 -459 -220 -989 -481 -811 -400 -965 -480 -981
-505 -17 -29 -18 -77 -18 -986 l0 -956 22 -33 c20 -28 159 -100 993 -512 919
-453 972 -479 1015 -474 61 5 1941 932 1983 977 l27 29 0 961 c0 843 -2 964
-15 990 -18 34 -32 41 -1205 619 -410 201 -758 369 -775 372 -16 3 -42 2 -57
-1z m914 -678 l867 -428 1 -866 0 -866 -875 -431 -874 -431 -876 431 -875 432
2 865 3 865 865 428 c476 235 872 428 880 428 8 0 405 -192 882 -427z"/>
<path d="M2453 3249 c-337 -26 -687 -180 -1018 -446 -177 -143 -227 -206 -217
-273 8 -48 209 -224 407 -355 650 -432 1299 -413 1955 57 132 94 290 236 313
280 28 55 12 90 -81 180 -149 143 -322 267 -514 367 -285 149 -566 212 -845
190z m297 -243 c179 -32 423 -138 604 -262 91 -63 235 -176 236 -185 0 -11
-151 -128 -260 -201 -173 -115 -381 -206 -560 -244 -110 -23 -315 -23 -419 0
-260 58 -548 209 -774 404 l-47 41 72 61 c222 187 498 328 741 379 110 23 297
26 407 7z"/>
<path d="M2467 2776 c-91 -34 -155 -102 -172 -184 -17 -81 35 -178 123 -230
42 -24 56 -27 142 -27 109 0 153 17 210 81 101 116 71 261 -71 338 -64 35
-170 45 -232 22z"/>
<path d="M75 3361 c-11 -5 -31 -21 -45 -36 l-25 -27 -3 -672 -2 -672 23 -35
c45 -67 146 -76 210 -19 l32 28 3 681 2 681 -33 36 c-30 33 -40 37 -88 40 -30
2 -63 0 -74 -5z"/>
<path d="M4910 3348 c-19 -13 -40 -35 -47 -48 -10 -19 -13 -177 -13 -686 l0
-661 23 -34 c45 -67 146 -76 210 -19 l32 28 3 681 2 681 -33 36 c-29 32 -41
38 -88 41 -45 4 -60 1 -89 -19z"/>
<path d="M1272 790 c-45 -28 -67 -80 -52 -126 6 -18 23 -42 38 -52 15 -10 302
-151 637 -312 570 -275 614 -294 665 -294 52 0 91 17 665 294 336 161 620 300
633 308 60 39 65 121 11 166 -37 31 -68 40 -117 33 -20 -3 -297 -130 -614
-282 l-577 -277 -586 281 c-634 304 -633 303 -703 261z"/>
</g>
</svg>
